<svg xmlns="http://www.w3.org/2000/svg" version="1.1" xmlns:xlink="http://www.w3.org/1999/xlink" xmlns:svgjs="http://svgjs.dev/svgjs" width="700" height="1000" preserveAspectRatio="none" viewBox="0 0 700 1000"><g mask="url(&quot;#SvgjsMask1046&quot;)" fill="none"><rect width="700" height="1000" x="0" y="0" fill="url(&quot;#SvgjsLinearGradient1047&quot;)"></rect><path d="M31.31 -38.99L96.26 -1.49L96.26 73.51L31.31 111.01L-33.64 73.51L-33.64 -1.49zM31.31 411.01L96.26 448.51L96.26 523.51L31.31 561.01L-33.64 523.51L-33.64 448.51zM96.26 523.51L161.22 561.01L161.22 636.01L96.26 673.51L31.31 636.01L31.31 561.01zM31.31 636.01L96.26 673.51L96.26 748.51L31.31 786.01L-33.64 748.51L-33.64 673.51zM31.31 861.01L96.26 898.51L96.26 973.51L31.31 1011.01L-33.64 973.51L-33.64 898.51zM96.26 973.51L161.22 1011.01L161.22 1086.01L96.26 1123.51L31.31 1086.01L31.31 1011.01zM161.22 -38.99L226.17 -1.49L226.17 73.51L161.22 111.01L96.26 73.51L96.26 -1.49zM161.22 636.01L226.17 673.51L226.17 748.51L161.22 786.01L96.26 748.51L96.26 673.51zM291.13 861.01L356.08 898.51L356.08 973.51L291.13 1011.01L226.17 973.51L226.17 898.51zM421.03 -38.99L485.99 -1.49L485.99 73.51L421.03 111.01L356.08 73.51L356.08 -1.49zM421.03 186.01L485.99 223.51L485.99 298.51L421.03 336.01L356.08 298.51L356.08 223.51zM485.99 973.51L550.94 1011.01L550.94 1086.01L485.99 1123.51L421.03 1086.01L421.03 1011.01zM550.94 -38.99L615.89 -1.49L615.89 73.51L550.94 111.01L485.99 73.51L485.99 -1.49zM550.94 411.01L615.89 448.51L615.89 523.51L550.94 561.01L485.99 523.51L485.99 448.51zM550.94 636.01L615.89 673.51L615.89 748.51L550.94 786.01L485.99 748.51L485.99 673.51zM550.94 861.01L615.89 898.51L615.89 973.51L550.94 1011.01L485.99 973.51L485.99 898.51z" stroke="#03305d" stroke-width="2"></path><path d="M23.81 -38.99 a7.5 7.5 0 1 0 15 0 a7.5 7.5 0 1 0 -15 0zM88.76 -1.49 a7.5 7.5 0 1 0 15 0 a7.5 7.5 0 1 0 -15 0zM88.76 73.51 a7.5 7.5 0 1 0 15 0 a7.5 7.5 0 1 0 -15 0zM23.81 111.01 a7.5 7.5 0 1 0 15 0 a7.5 7.5 0 1 0 -15 0zM-41.14 73.51 a7.5 7.5 0 1 0 15 0 a7.5 7.5 0 1 0 -15 0zM-41.14 -1.49 a7.5 7.5 0 1 0 15 0 a7.5 7.5 0 1 0 -15 0zM23.81 411.01 a7.5 7.5 0 1 0 15 0 a7.5 7.5 0 1 0 -15 0zM88.76 448.51 a7.5 7.5 0 1 0 15 0 a7.5 7.5 0 1 0 -15 0zM88.76 523.51 a7.5 7.5 0 1 0 15 0 a7.5 7.5 0 1 0 -15 0zM23.81 561.01 a7.5 7.5 0 1 0 15 0 a7.5 7.5 0 1 0 -15 0zM-41.14 523.51 a7.5 7.5 0 1 0 15 0 a7.5 7.5 0 1 0 -15 0zM-41.14 448.51 a7.5 7.5 0 1 0 15 0 a7.5 7.5 0 1 0 -15 0zM153.72 561.01 a7.5 7.5 0 1 0 15 0 a7.5 7.5 0 1 0 -15 0zM153.72 636.01 a7.5 7.5 0 1 0 15 0 a7.5 7.5 0 1 0 -15 0zM88.76 673.51 a7.5 7.5 0 1 0 15 0 a7.5 7.5 0 1 0 -15 0zM23.81 636.01 a7.5 7.5 0 1 0 15 0 a7.5 7.5 0 1 0 -15 0zM88.76 748.51 a7.5 7.5 0 1 0 15 0 a7.5 7.5 0 1 0 -15 0zM23.81 786.01 a7.5 7.5 0 1 0 15 0 a7.5 7.5 0 1 0 -15 0zM-41.14 748.51 a7.5 7.5 0 1 0 15 0 a7.5 7.5 0 1 0 -15 0zM-41.14 673.51 a7.5 7.5 0 1 0 15 0 a7.5 7.5 0 1 0 -15 0zM23.81 861.01 a7.5 7.5 0 1 0 15 0 a7.5 7.5 0 1 0 -15 0zM88.76 898.51 a7.5 7.5 0 1 0 15 0 a7.5 7.5 0 1 0 -15 0zM88.76 973.51 a7.5 7.5 0 1 0 15 0 a7.5 7.5 0 1 0 -15 0zM23.81 1011.01 a7.5 7.5 0 1 0 15 0 a7.5 7.5 0 1 0 -15 0zM-41.14 973.51 a7.5 7.5 0 1 0 15 0 a7.5 7.5 0 1 0 -15 0zM-41.14 898.51 a7.5 7.5 0 1 0 15 0 a7.5 7.5 0 1 0 -15 0zM153.72 1011.01 a7.5 7.5 0 1 0 15 0 a7.5 7.5 0 1 0 -15 0zM153.72 1086.01 a7.5 7.5 0 1 0 15 0 a7.5 7.5 0 1 0 -15 0zM88.76 1123.51 a7.5 7.5 0 1 0 15 0 a7.5 7.5 0 1 0 -15 0zM23.81 1086.01 a7.5 7.5 0 1 0 15 0 a7.5 7.5 0 1 0 -15 0zM153.72 -38.99 a7.5 7.5 0 1 0 15 0 a7.5 7.5 0 1 0 -15 0zM218.67 -1.49 a7.5 7.5 0 1 0 15 0 a7.5 7.5 0 1 0 -15 0zM218.67 73.51 a7.5 7.5 0 1 0 15 0 a7.5 7.5 0 1 0 -15 0zM153.72 111.01 a7.5 7.5 0 1 0 15 0 a7.5 7.5 0 1 0 -15 0zM218.67 673.51 a7.5 7.5 0 1 0 15 0 a7.5 7.5 0 1 0 -15 0zM218.67 748.51 a7.5 7.5 0 1 0 15 0 a7.5 7.5 0 1 0 -15 0zM153.72 786.01 a7.5 7.5 0 1 0 15 0 a7.5 7.5 0 1 0 -15 0zM283.63 861.01 a7.5 7.5 0 1 0 15 0 a7.5 7.5 0 1 0 -15 0zM348.58 898.51 a7.5 7.5 0 1 0 15 0 a7.5 7.5 0 1 0 -15 0zM348.58 973.51 a7.5 7.5 0 1 0 15 0 a7.5 7.5 0 1 0 -15 0zM283.63 1011.01 a7.5 7.5 0 1 0 15 0 a7.5 7.5 0 1 0 -15 0zM218.67 973.51 a7.5 7.5 0 1 0 15 0 a7.5 7.5 0 1 0 -15 0zM218.67 898.51 a7.5 7.5 0 1 0 15 0 a7.5 7.5 0 1 0 -15 0zM413.53 -38.99 a7.5 7.5 0 1 0 15 0 a7.5 7.5 0 1 0 -15 0zM478.49 -1.49 a7.5 7.5 0 1 0 15 0 a7.5 7.5 0 1 0 -15 0zM478.49 73.51 a7.5 7.5 0 1 0 15 0 a7.5 7.5 0 1 0 -15 0zM413.53 111.01 a7.5 7.5 0 1 0 15 0 a7.5 7.5 0 1 0 -15 0zM348.58 73.51 a7.5 7.5 0 1 0 15 0 a7.5 7.5 0 1 0 -15 0zM348.58 -1.49 a7.5 7.5 0 1 0 15 0 a7.5 7.5 0 1 0 -15 0zM413.53 186.01 a7.5 7.5 0 1 0 15 0 a7.5 7.5 0 1 0 -15 0zM478.49 223.51 a7.5 7.5 0 1 0 15 0 a7.5 7.5 0 1 0 -15 0zM478.49 298.51 a7.5 7.5 0 1 0 15 0 a7.5 7.5 0 1 0 -15 0zM413.53 336.01 a7.5 7.5 0 1 0 15 0 a7.5 7.5 0 1 0 -15 0zM348.58 298.51 a7.5 7.5 0 1 0 15 0 a7.5 7.5 0 1 0 -15 0zM348.58 223.51 a7.5 7.5 0 1 0 15 0 a7.5 7.5 0 1 0 -15 0zM478.49 973.51 a7.5 7.5 0 1 0 15 0 a7.5 7.5 0 1 0 -15 0zM543.44 1011.01 a7.5 7.5 0 1 0 15 0 a7.5 7.5 0 1 0 -15 0zM543.44 1086.01 a7.5 7.5 0 1 0 15 0 a7.5 7.5 0 1 0 -15 0zM478.49 1123.51 a7.5 7.5 0 1 0 15 0 a7.5 7.5 0 1 0 -15 0zM413.53 1086.01 a7.5 7.5 0 1 0 15 0 a7.5 7.5 0 1 0 -15 0zM413.53 1011.01 a7.5 7.5 0 1 0 15 0 a7.5 7.5 0 1 0 -15 0zM543.44 -38.99 a7.5 7.5 0 1 0 15 0 a7.5 7.5 0 1 0 -15 0zM608.39 -1.49 a7.5 7.5 0 1 0 15 0 a7.5 7.5 0 1 0 -15 0zM608.39 73.51 a7.5 7.5 0 1 0 15 0 a7.5 7.5 0 1 0 -15 0zM543.44 111.01 a7.5 7.5 0 1 0 15 0 a7.5 7.5 0 1 0 -15 0zM543.44 411.01 a7.5 7.5 0 1 0 15 0 a7.5 7.5 0 1 0 -15 0zM608.39 448.51 a7.5 7.5 0 1 0 15 0 a7.5 7.5 0 1 0 -15 0zM608.39 523.51 a7.5 7.5 0 1 0 15 0 a7.5 7.5 0 1 0 -15 0zM543.44 561.01 a7.5 7.5 0 1 0 15 0 a7.5 7.5 0 1 0 -15 0zM478.49 523.51 a7.5 7.5 0 1 0 15 0 a7.5 7.5 0 1 0 -15 0zM478.49 448.51 a7.5 7.5 0 1 0 15 0 a7.5 7.5 0 1 0 -15 0zM543.44 636.01 a7.5 7.5 0 1 0 15 0 a7.5 7.5 0 1 0 -15 0zM608.39 673.51 a7.5 7.5 0 1 0 15 0 a7.5 7.5 0 1 0 -15 0zM608.39 748.51 a7.5 7.5 0 1 0 15 0 a7.5 7.5 0 1 0 -15 0zM543.44 786.01 a7.5 7.5 0 1 0 15 0 a7.5 7.5 0 1 0 -15 0zM478.49 748.51 a7.5 7.5 0 1 0 15 0 a7.5 7.5 0 1 0 -15 0zM478.49 673.51 a7.5 7.5 0 1 0 15 0 a7.5 7.5 0 1 0 -15 0zM543.44 861.01 a7.5 7.5 0 1 0 15 0 a7.5 7.5 0 1 0 -15 0zM608.39 898.51 a7.5 7.5 0 1 0 15 0 a7.5 7.5 0 1 0 -15 0zM608.39 973.51 a7.5 7.5 0 1 0 15 0 a7.5 7.5 0 1 0 -15 0zM478.49 898.51 a7.5 7.5 0 1 0 15 0 a7.5 7.5 0 1 0 -15 0z" fill="#03305d"></path><path d="M37.93 -14.78L81.23 10.22L81.23 60.22L37.93 85.22L-5.37 60.22L-5.37 10.22zM81.23 960.22L124.53 985.22L124.53 1035.22L81.23 1060.22L37.93 1035.22L37.93 985.22zM167.84 510.22L211.14 535.22L211.14 585.22L167.84 610.22L124.53 585.22L124.53 535.22zM124.53 735.22L167.84 760.22L167.84 810.22L124.53 835.22L81.23 810.22L81.23 760.22zM254.44 210.22L297.75 235.22L297.75 285.22L254.44 310.22L211.14 285.22L211.14 235.22zM254.44 510.22L297.75 535.22L297.75 585.22L254.44 610.22L211.14 585.22L211.14 535.22zM297.75 735.22L341.05 760.22L341.05 810.22L297.75 835.22L254.44 810.22L254.44 760.22zM514.26 60.22L557.56 85.22L557.56 135.22L514.26 160.22L470.96 135.22L470.96 85.22zM470.96 435.22L514.26 460.22L514.26 510.22L470.96 535.22L427.65 510.22L427.65 460.22zM514.26 810.22L557.56 835.22L557.56 885.22L514.26 910.22L470.96 885.22L470.96 835.22zM600.86 960.22L644.16 985.22L644.16 1035.22L600.86 1060.22L557.56 1035.22L557.56 985.22zM644.16 885.22L687.47 910.22L687.47 960.22L644.16 985.22L600.86 960.22L600.86 910.22zM730.77 -14.78L774.07 10.22L774.07 60.22L730.77 85.22L687.47 60.22L687.47 10.22zM730.77 285.22L774.07 310.22L774.07 360.22L730.77 385.22L687.47 360.22L687.47 310.22z" stroke="rgba(6, 80, 156, 0.93)" stroke-width="2"></path></g><defs><mask id="SvgjsMask1046"><rect width="700" height="1000" fill="#ffffff"></rect></mask><linearGradient x1="-10.71%" y1="7.5%" x2="110.71%" y2="92.5%" gradientUnits="userSpaceOnUse" id="SvgjsLinearGradient1047"><stop stop-color="#0e2a47" offset="0"></stop><stop stop-color="rgba(15, 41, 66, 1)" offset="1"></stop></linearGradient></defs></svg>