<svg id="visual" viewBox="0 0 1500 800" width="1500" height="800" xmlns="http://www.w3.org/2000/svg" xmlns:xlink="http://www.w3.org/1999/xlink" version="1.1"><rect x="0" y="0" width="1500" height="800" fill="#fff"></rect><defs><linearGradient id="grad1_0" x1="46.7%" y1="100%" x2="100%" y2="0%"><stop offset="12.5%" stop-color="#3498db" stop-opacity="1"></stop><stop offset="87.5%" stop-color="#3498db" stop-opacity="1"></stop></linearGradient></defs><defs><linearGradient id="grad1_1" x1="46.7%" y1="100%" x2="100%" y2="0%"><stop offset="12.5%" stop-color="#3498db" stop-opacity="1"></stop><stop offset="87.5%" stop-color="#ffffff" stop-opacity="1"></stop></linearGradient></defs><defs><linearGradient id="grad2_0" x1="0%" y1="100%" x2="53.3%" y2="0%"><stop offset="12.5%" stop-color="#3498db" stop-opacity="1"></stop><stop offset="87.5%" stop-color="#3498db" stop-opacity="1"></stop></linearGradient></defs><defs><linearGradient id="grad2_1" x1="0%" y1="100%" x2="53.3%" y2="0%"><stop offset="12.5%" stop-color="#ffffff" stop-opacity="1"></stop><stop offset="87.5%" stop-color="#3498db" stop-opacity="1"></stop></linearGradient></defs><g transform="translate(1500, 800)"><path d="M-440 0C-433.1 -60 -426.1 -119.9 -398.2 -164.9C-370.2 -210 -321.3 -240.1 -282.1 -282.1C-243 -324.2 -213.8 -378.2 -168.4 -406.5C-123 -434.8 -61.5 -437.4 0 -440L0 0Z" fill="#a9caed"></path><path d="M-220 0C-216.5 -30 -213.1 -60 -199.1 -82.5C-185.1 -105 -160.6 -120 -141.1 -141.1C-121.5 -162.1 -106.9 -189.1 -84.2 -203.3C-61.5 -217.4 -30.8 -218.7 0 -220L0 0Z" fill="#3498db"></path></g><g transform="translate(0, 0)"><path d="M440 0C419.2 52.7 398.3 105.4 376.9 156.1C355.6 206.8 333.6 255.6 299.8 299.8C266 344.1 220.3 383.9 168.4 406.5C116.4 429.1 58.2 434.6 0 440L0 0Z" fill="#a9caed"></path><path d="M220 0C209.6 26.4 199.2 52.7 188.5 78.1C177.8 103.4 166.8 127.8 149.9 149.9C133 172 110.2 191.9 84.2 203.3C58.2 214.6 29.1 217.3 0 220L0 0Z" fill="#3498db"></path></g></svg>